G04*
G04 #@! TF.GenerationSoftware,Altium Limited,Altium Designer,22.8.2 (66)*
G04*
G04 Layer_Physical_Order=1*
G04 Layer_Color=255*
%FSLAX25Y25*%
%MOIN*%
G70*
G04*
G04 #@! TF.SameCoordinates,013CEF1E-E844-4C8F-9221-5B29E727AB2A*
G04*
G04*
G04 #@! TF.FilePolarity,Positive*
G04*
G01*
G75*
%ADD13C,0.01000*%
%ADD18R,0.06181X0.06181*%
%ADD19C,0.06181*%
%ADD32C,0.08071*%
%ADD33R,0.08071X0.08071*%
%ADD36C,0.01500*%
%ADD37C,0.05512*%
%ADD38R,0.05512X0.05512*%
%ADD39C,0.04724*%
%ADD40R,0.04724X0.04724*%
%ADD41C,0.05150*%
%ADD42C,0.04953*%
%ADD43C,0.04756*%
%ADD44R,0.06299X0.06299*%
%ADD45C,0.06299*%
%ADD46R,0.05512X0.05512*%
%ADD47R,0.05906X0.05906*%
%ADD48C,0.05906*%
%ADD49R,0.05906X0.05906*%
%ADD50C,0.06693*%
%ADD51R,0.06693X0.06693*%
%ADD52R,0.06299X0.06299*%
%ADD53R,0.05315X0.05315*%
%ADD54C,0.05315*%
D13*
X71500Y239500D02*
X72000Y240000D01*
X61500Y239500D02*
X62000Y240000D01*
D18*
X138000Y228500D02*
D03*
D19*
Y238500D02*
D03*
D32*
X96000Y192500D02*
D03*
Y182500D02*
D03*
D33*
Y172500D02*
D03*
D36*
X68000Y83500D02*
Y93000D01*
X70000Y95000D01*
Y114157D01*
X121000Y197500D02*
Y201716D01*
X96000Y172500D02*
X121000Y197500D01*
X54500Y224000D02*
Y229500D01*
X52658Y231343D02*
X54500Y229500D01*
X25000Y231343D02*
X52658D01*
X17658Y224000D02*
X25000Y231343D01*
X98500Y34657D02*
Y71000D01*
X94842Y31000D02*
X98500Y34657D01*
X50500Y91000D02*
Y94500D01*
Y91000D02*
X58000Y83500D01*
X43000Y102000D02*
X50500Y94500D01*
X8000Y102000D02*
X43000D01*
X7000Y101000D02*
X8000Y102000D01*
X7000Y85000D02*
Y101000D01*
Y85000D02*
X8000Y84000D01*
X15000D01*
X58000Y48158D02*
X75157Y31000D01*
X58000Y48158D02*
Y83500D01*
X68000D02*
X80500Y71000D01*
X98500D01*
X158161Y4497D02*
X182769Y29105D01*
Y84938D01*
X95571Y4497D02*
X158161D01*
X45288Y54780D02*
Y63712D01*
X182769Y84938D02*
X216894Y119063D01*
X15000Y94000D02*
X45288Y63712D01*
Y54780D02*
X95571Y4497D01*
X54500Y224000D02*
X96000Y182500D01*
X58000Y121843D02*
X70000Y133843D01*
X58000Y83500D02*
Y121843D01*
X23000Y146000D02*
X35157Y133843D01*
X70000D01*
X101432Y108500D02*
X132000D01*
X143885Y120385D02*
Y126054D01*
X132000Y108500D02*
X143885Y120385D01*
X45432Y164500D02*
X101432Y108500D01*
X8000Y164500D02*
X45432D01*
X143885Y126054D02*
X156894Y139063D01*
X105101Y113000D02*
X130621D01*
X40601Y177500D02*
X105101Y113000D01*
X130621D02*
X140000Y122379D01*
X12000Y177500D02*
X40601D01*
X3500Y169000D02*
X8000Y164500D01*
X3500Y169000D02*
Y179000D01*
X12000Y187500D01*
X143442Y169063D02*
X156894D01*
X140000Y122379D02*
Y165621D01*
X143442Y169063D01*
X121000Y120658D02*
X130055Y129713D01*
Y230555D01*
X138000Y238500D01*
X96000Y192500D02*
X110500Y207000D01*
Y221000D01*
X81000D02*
X110500D01*
X62000Y240000D02*
X81000Y221000D01*
X72000Y240000D02*
X81000Y231000D01*
X110500D01*
X138000Y228500D02*
X150497D01*
X155185Y233188D02*
X211018D01*
X150497Y228500D02*
X155185Y233188D01*
X211018D02*
X216894Y239063D01*
X117861Y241982D02*
X124379Y248500D01*
X147457D01*
X110500Y221000D02*
X117861Y228361D01*
Y241982D01*
X147457Y248500D02*
X156894Y239063D01*
X127500Y32621D02*
X129376Y34497D01*
X136865D01*
X145556Y43188D02*
X156852D01*
X136865Y34497D02*
X145556Y43188D01*
X156852D02*
X162769Y49105D01*
Y114938D02*
X216894Y169063D01*
X127500Y16500D02*
Y32621D01*
X162769Y49105D02*
Y114938D01*
X127500Y16500D02*
X135000Y9000D01*
X171500Y37000D02*
Y113669D01*
X157688Y23188D02*
X171500Y37000D01*
Y113669D02*
X216894Y159063D01*
X139188Y23188D02*
X157688D01*
X135000Y19000D02*
X139188Y23188D01*
X147500Y116000D02*
X150563Y119063D01*
X156894D01*
X147500Y81500D02*
Y116000D01*
X135000Y69000D02*
X147500Y81500D01*
D37*
X26000Y22500D02*
D03*
X121000Y140342D02*
D03*
X70000Y133843D02*
D03*
X75157Y31000D02*
D03*
D38*
X26000Y42185D02*
D03*
X121000Y120658D02*
D03*
X70000Y114157D02*
D03*
D39*
X52500Y172000D02*
D03*
Y182000D02*
D03*
D40*
Y192000D02*
D03*
D41*
X216894Y89063D02*
D03*
Y79063D02*
D03*
Y69063D02*
D03*
Y59063D02*
D03*
Y49063D02*
D03*
Y39063D02*
D03*
Y29063D02*
D03*
Y19063D02*
D03*
Y9063D02*
D03*
X156894D02*
D03*
Y19063D02*
D03*
Y29063D02*
D03*
Y39063D02*
D03*
Y49063D02*
D03*
Y59063D02*
D03*
Y69063D02*
D03*
Y79063D02*
D03*
Y89063D02*
D03*
X216894Y239063D02*
D03*
Y229063D02*
D03*
Y219063D02*
D03*
Y209063D02*
D03*
Y199063D02*
D03*
Y189063D02*
D03*
Y179063D02*
D03*
Y169063D02*
D03*
Y159063D02*
D03*
Y149063D02*
D03*
Y139063D02*
D03*
Y129063D02*
D03*
Y119063D02*
D03*
Y109063D02*
D03*
X156894Y99063D02*
D03*
Y109063D02*
D03*
Y119063D02*
D03*
Y129063D02*
D03*
Y139063D02*
D03*
Y149063D02*
D03*
Y159063D02*
D03*
Y169063D02*
D03*
Y179063D02*
D03*
Y189063D02*
D03*
Y199063D02*
D03*
Y209063D02*
D03*
Y219063D02*
D03*
X216894Y99063D02*
D03*
X196894Y59063D02*
D03*
X206894Y229063D02*
D03*
Y59063D02*
D03*
X186894D02*
D03*
X176894D02*
D03*
X166894D02*
D03*
X156894Y229063D02*
D03*
Y239063D02*
D03*
D42*
X168902Y174063D02*
D03*
Y184063D02*
D03*
Y194063D02*
D03*
Y204063D02*
D03*
Y214063D02*
D03*
D43*
X191500Y188000D02*
D03*
X199374D02*
D03*
X191500Y180126D02*
D03*
X199374D02*
D03*
X207248Y188000D02*
D03*
Y180126D02*
D03*
D44*
X23000Y146000D02*
D03*
D45*
Y126315D02*
D03*
X17658Y224000D02*
D03*
D46*
X94842Y31000D02*
D03*
D47*
X82000Y240000D02*
D03*
D48*
X72000D02*
D03*
X62000D02*
D03*
X110500Y231000D02*
D03*
Y221000D02*
D03*
X15000Y84000D02*
D03*
Y74000D02*
D03*
X98500Y81000D02*
D03*
Y91000D02*
D03*
X135000Y69000D02*
D03*
Y59000D02*
D03*
Y49000D02*
D03*
Y39000D02*
D03*
Y29000D02*
D03*
Y19000D02*
D03*
Y9000D02*
D03*
X12000Y187500D02*
D03*
D49*
X110500Y241000D02*
D03*
X15000Y94000D02*
D03*
X98500Y71000D02*
D03*
X135000Y79000D02*
D03*
X12000Y177500D02*
D03*
D50*
X48000Y83500D02*
D03*
X58000D02*
D03*
D51*
X68000D02*
D03*
D52*
X37343Y224000D02*
D03*
D53*
X121000Y166284D02*
D03*
D54*
Y201716D02*
D03*
M02*
