G04*
G04 #@! TF.GenerationSoftware,Altium Limited,Altium Designer,22.8.2 (66)*
G04*
G04 Layer_Color=32768*
%FSLAX25Y25*%
%MOIN*%
G70*
G04*
G04 #@! TF.SameCoordinates,013CEF1E-E844-4C8F-9221-5B29E727AB2A*
G04*
G04*
G04 #@! TF.FilePolarity,Positive*
G04*
G01*
G75*
%ADD10C,0.00787*%
%ADD55C,0.00394*%
%ADD56C,0.00197*%
D10*
X132409Y222122D02*
Y244878D01*
X143591D01*
Y222122D02*
Y244878D01*
X132409Y222122D02*
X143591D01*
X102850Y161398D02*
Y203602D01*
X83756D02*
X102850D01*
X83756Y161398D02*
Y203602D01*
Y161398D02*
X102850D01*
D55*
X24032Y32342D02*
X27968D01*
X26000Y30374D02*
Y34311D01*
X119032Y130500D02*
X122968D01*
X121000Y128532D02*
Y132468D01*
X23000Y134189D02*
Y138126D01*
X21032Y136158D02*
X24969D01*
X70000Y122031D02*
Y125969D01*
X68032Y124000D02*
X71969D01*
X83031Y31000D02*
X86968D01*
X85000Y29032D02*
Y32969D01*
X56032Y83500D02*
X59969D01*
X58000Y81532D02*
Y85469D01*
X25532Y224000D02*
X29469D01*
X27500Y222031D02*
Y225969D01*
X119032Y184000D02*
X122968D01*
X121000Y182032D02*
Y185968D01*
D56*
X5921Y12264D02*
Y52421D01*
X46079D01*
X5921Y12264D02*
X46079D01*
Y52421D01*
X141079Y110421D02*
Y150579D01*
X100921Y110421D02*
X141079D01*
X100921Y150579D02*
X141079D01*
X100921Y110421D02*
Y150579D01*
X203744Y245047D02*
X222878D01*
X150909D02*
X170043D01*
Y247803D02*
X203744D01*
Y245047D02*
Y247803D01*
X170043Y245047D02*
Y247803D01*
X150909Y3079D02*
Y245047D01*
Y3079D02*
X222878D01*
Y245047D01*
X6465Y116079D02*
Y158598D01*
Y116079D02*
X39535D01*
Y158598D01*
X6465D02*
X39535D01*
X49921Y103921D02*
Y144079D01*
X90079D01*
X49921Y103921D02*
X90079D01*
Y144079D01*
X64921Y10921D02*
X105079D01*
X64921D02*
Y51079D01*
X105079Y10921D02*
Y51079D01*
X64921D02*
X105079D01*
X7421Y240535D02*
X49941D01*
X7421Y207465D02*
Y240535D01*
Y207465D02*
X49941D01*
Y240535D01*
X115882Y204768D02*
X126118D01*
X115882Y163232D02*
Y204768D01*
X126118Y163232D02*
Y204768D01*
X115882Y163232D02*
X126118D01*
M02*
