G04*
G04 #@! TF.GenerationSoftware,Altium Limited,Altium Designer,22.8.2 (66)*
G04*
G04 Layer_Color=255*
%FSLAX25Y25*%
%MOIN*%
G70*
G04*
G04 #@! TF.SameCoordinates,013CEF1E-E844-4C8F-9221-5B29E727AB2A*
G04*
G04*
G04 #@! TF.FilePolarity,Positive*
G04*
G01*
G75*
%ADD18R,0.06181X0.06181*%
%ADD19C,0.06181*%
%ADD32C,0.08071*%
%ADD33R,0.08071X0.08071*%
%ADD37C,0.05512*%
%ADD38R,0.05512X0.05512*%
%ADD39C,0.04724*%
%ADD40R,0.04724X0.04724*%
%ADD41C,0.05150*%
%ADD42C,0.04953*%
%ADD43C,0.04756*%
%ADD44R,0.06299X0.06299*%
%ADD45C,0.06299*%
%ADD46R,0.05512X0.05512*%
%ADD47R,0.05906X0.05906*%
%ADD48C,0.05906*%
%ADD49R,0.05906X0.05906*%
%ADD50C,0.06693*%
%ADD51R,0.06693X0.06693*%
%ADD52R,0.06299X0.06299*%
%ADD53R,0.05315X0.05315*%
%ADD54C,0.05315*%
D18*
X138000Y228500D02*
D03*
D19*
Y238500D02*
D03*
D32*
X96000Y192500D02*
D03*
Y182500D02*
D03*
D33*
Y172500D02*
D03*
D37*
X26000Y22500D02*
D03*
X121000Y140342D02*
D03*
X70000Y133843D02*
D03*
X75157Y31000D02*
D03*
D38*
X26000Y42185D02*
D03*
X121000Y120658D02*
D03*
X70000Y114157D02*
D03*
D39*
X52500Y172000D02*
D03*
Y182000D02*
D03*
D40*
Y192000D02*
D03*
D41*
X216894Y89063D02*
D03*
Y79063D02*
D03*
Y69063D02*
D03*
Y59063D02*
D03*
Y49063D02*
D03*
Y39063D02*
D03*
Y29063D02*
D03*
Y19063D02*
D03*
Y9063D02*
D03*
X156894D02*
D03*
Y19063D02*
D03*
Y29063D02*
D03*
Y39063D02*
D03*
Y49063D02*
D03*
Y59063D02*
D03*
Y69063D02*
D03*
Y79063D02*
D03*
Y89063D02*
D03*
X216894Y239063D02*
D03*
Y229063D02*
D03*
Y219063D02*
D03*
Y209063D02*
D03*
Y199063D02*
D03*
Y189063D02*
D03*
Y179063D02*
D03*
Y169063D02*
D03*
Y159063D02*
D03*
Y149063D02*
D03*
Y139063D02*
D03*
Y129063D02*
D03*
Y119063D02*
D03*
Y109063D02*
D03*
X156894Y99063D02*
D03*
Y109063D02*
D03*
Y119063D02*
D03*
Y129063D02*
D03*
Y139063D02*
D03*
Y149063D02*
D03*
Y159063D02*
D03*
Y169063D02*
D03*
Y179063D02*
D03*
Y189063D02*
D03*
Y199063D02*
D03*
Y209063D02*
D03*
Y219063D02*
D03*
X216894Y99063D02*
D03*
X196894Y59063D02*
D03*
X206894Y229063D02*
D03*
Y59063D02*
D03*
X186894D02*
D03*
X176894D02*
D03*
X166894D02*
D03*
X156894Y229063D02*
D03*
Y239063D02*
D03*
D42*
X168902Y174063D02*
D03*
Y184063D02*
D03*
Y194063D02*
D03*
Y204063D02*
D03*
Y214063D02*
D03*
D43*
X191500Y188000D02*
D03*
X199374D02*
D03*
X191500Y180126D02*
D03*
X199374D02*
D03*
X207248Y188000D02*
D03*
Y180126D02*
D03*
D44*
X23000Y146000D02*
D03*
D45*
Y126315D02*
D03*
X17658Y224000D02*
D03*
D46*
X94842Y31000D02*
D03*
D47*
X82000Y240000D02*
D03*
D48*
X72000D02*
D03*
X62000D02*
D03*
X110500Y231000D02*
D03*
Y221000D02*
D03*
X15000Y84000D02*
D03*
Y74000D02*
D03*
X98500Y81000D02*
D03*
Y91000D02*
D03*
X135000Y69000D02*
D03*
Y59000D02*
D03*
Y49000D02*
D03*
Y39000D02*
D03*
Y29000D02*
D03*
Y19000D02*
D03*
Y9000D02*
D03*
X12000Y187500D02*
D03*
D49*
X110500Y241000D02*
D03*
X15000Y94000D02*
D03*
X98500Y71000D02*
D03*
X135000Y79000D02*
D03*
X12000Y177500D02*
D03*
D50*
X48000Y83500D02*
D03*
X58000D02*
D03*
D51*
X68000D02*
D03*
D52*
X37343Y224000D02*
D03*
D53*
X121000Y166284D02*
D03*
D54*
Y201716D02*
D03*
M02*
