G04*
G04 #@! TF.GenerationSoftware,Altium Limited,Altium Designer,22.8.2 (66)*
G04*
G04 Layer_Color=16711935*
%FSLAX25Y25*%
%MOIN*%
G70*
G04*
G04 #@! TF.SameCoordinates,013CEF1E-E844-4C8F-9221-5B29E727AB2A*
G04*
G04*
G04 #@! TF.FilePolarity,Positive*
G04*
G01*
G75*
%ADD10C,0.00787*%
%ADD12C,0.00500*%
%ADD13C,0.01000*%
%ADD55C,0.00394*%
D10*
X149886Y219063D02*
X149098D01*
X149886D01*
X132803Y222516D02*
Y244484D01*
X143197D01*
Y222516D02*
Y244484D01*
X132803Y222516D02*
X143197D01*
X102457Y161791D02*
Y203209D01*
X84150D02*
X102457D01*
X84150Y161791D02*
Y203209D01*
Y161791D02*
X102457D01*
D12*
X202760Y244063D02*
X221894D01*
X151894D02*
X171028D01*
Y246819D02*
X202760D01*
Y244063D02*
Y246819D01*
X171028Y244063D02*
Y246819D01*
X151894Y4063D02*
Y244063D01*
Y4063D02*
X221894D01*
Y244063D01*
D13*
X193231Y125047D02*
Y121715D01*
Y123381D01*
X188232D01*
Y117550D02*
Y119216D01*
X189065Y120049D01*
X190732D01*
X191565Y119216D01*
Y117550D01*
X190732Y116717D01*
X189898D01*
Y120049D01*
X188232Y112551D02*
Y114217D01*
X189065Y115050D01*
X190732D01*
X191565Y114217D01*
Y112551D01*
X190732Y111718D01*
X189898D01*
Y115050D01*
X188232Y110052D02*
X191565D01*
Y107553D01*
X190732Y106720D01*
X188232D01*
Y105054D02*
Y102555D01*
X189065Y101722D01*
X189898Y102555D01*
Y104221D01*
X190732Y105054D01*
X191565Y104221D01*
Y101722D01*
Y100055D02*
X189065D01*
X188232Y99222D01*
Y96723D01*
X187399D01*
X186566Y97556D01*
Y98389D01*
X188232Y96723D02*
X191565D01*
X188232Y87559D02*
X193231D01*
X190732Y90059D01*
Y86726D01*
X188232Y85060D02*
X189065D01*
Y84227D01*
X188232D01*
Y85060D01*
Y80895D02*
Y79229D01*
Y80062D01*
X193231D01*
X192398Y80895D01*
D55*
X45685Y32342D02*
X45660Y33340D01*
X45584Y34334D01*
X45458Y35323D01*
X45282Y36305D01*
X45057Y37277D01*
X44782Y38236D01*
X44460Y39179D01*
X44090Y40105D01*
X43673Y41012D01*
X43211Y41896D01*
X42706Y42755D01*
X42157Y43588D01*
X41566Y44392D01*
X40936Y45165D01*
X40268Y45905D01*
X39562Y46610D01*
X38822Y47279D01*
X38049Y47909D01*
X37245Y48499D01*
X36413Y49048D01*
X35553Y49554D01*
X34669Y50016D01*
X33763Y50432D01*
X32837Y50802D01*
X31893Y51125D01*
X30934Y51399D01*
X29963Y51625D01*
X28981Y51801D01*
X27992Y51927D01*
X26997Y52002D01*
X26000Y52028D01*
X25003Y52002D01*
X24009Y51927D01*
X23019Y51801D01*
X22037Y51625D01*
X21066Y51399D01*
X20107Y51125D01*
X19163Y50802D01*
X18237Y50432D01*
X17331Y50016D01*
X16447Y49554D01*
X15587Y49048D01*
X14755Y48499D01*
X13951Y47909D01*
X13178Y47279D01*
X12438Y46610D01*
X11732Y45905D01*
X11064Y45165D01*
X10434Y44392D01*
X9843Y43588D01*
X9294Y42755D01*
X8788Y41896D01*
X8327Y41012D01*
X7910Y40105D01*
X7540Y39179D01*
X7218Y38236D01*
X6943Y37277D01*
X6718Y36305D01*
X6542Y35323D01*
X6416Y34334D01*
X6340Y33340D01*
X6315Y32342D01*
X6340Y31345D01*
X6416Y30351D01*
X6542Y29362D01*
X6718Y28380D01*
X6943Y27408D01*
X7218Y26449D01*
X7540Y25506D01*
X7910Y24580D01*
X8327Y23673D01*
X8788Y22789D01*
X9294Y21930D01*
X9843Y21097D01*
X10434Y20293D01*
X11064Y19520D01*
X11733Y18780D01*
X12438Y18075D01*
X13178Y17406D01*
X13951Y16776D01*
X14755Y16186D01*
X15587Y15637D01*
X16447Y15131D01*
X17331Y14669D01*
X18237Y14253D01*
X19163Y13883D01*
X20107Y13560D01*
X21066Y13286D01*
X22038Y13060D01*
X23019Y12885D01*
X24009Y12758D01*
X25003Y12683D01*
X26000Y12657D01*
X26997Y12683D01*
X27992Y12758D01*
X28981Y12885D01*
X29963Y13060D01*
X30934Y13286D01*
X31893Y13560D01*
X32837Y13883D01*
X33763Y14253D01*
X34669Y14669D01*
X35553Y15131D01*
X36413Y15637D01*
X37246Y16186D01*
X38049Y16776D01*
X38822Y17406D01*
X39562Y18075D01*
X40268Y18780D01*
X40936Y19520D01*
X41567Y20293D01*
X42157Y21097D01*
X42706Y21930D01*
X43212Y22789D01*
X43673Y23673D01*
X44090Y24580D01*
X44460Y25506D01*
X44782Y26450D01*
X45057Y27408D01*
X45282Y28380D01*
X45458Y29362D01*
X45584Y30351D01*
X45660Y31346D01*
X45685Y32342D01*
X140685Y130500D02*
X140660Y131497D01*
X140584Y132492D01*
X140458Y133481D01*
X140282Y134463D01*
X140057Y135434D01*
X139782Y136393D01*
X139460Y137337D01*
X139090Y138263D01*
X138673Y139169D01*
X138212Y140053D01*
X137706Y140913D01*
X137157Y141745D01*
X136566Y142549D01*
X135936Y143322D01*
X135268Y144062D01*
X134562Y144768D01*
X133822Y145436D01*
X133049Y146066D01*
X132245Y146657D01*
X131413Y147206D01*
X130553Y147712D01*
X129669Y148173D01*
X128763Y148590D01*
X127837Y148960D01*
X126893Y149282D01*
X125934Y149557D01*
X124963Y149782D01*
X123981Y149958D01*
X122992Y150084D01*
X121997Y150160D01*
X121000Y150185D01*
X120003Y150160D01*
X119009Y150084D01*
X118019Y149958D01*
X117037Y149782D01*
X116066Y149557D01*
X115107Y149282D01*
X114163Y148960D01*
X113237Y148590D01*
X112331Y148173D01*
X111447Y147712D01*
X110587Y147206D01*
X109755Y146657D01*
X108951Y146066D01*
X108178Y145436D01*
X107438Y144768D01*
X106732Y144062D01*
X106064Y143322D01*
X105433Y142549D01*
X104843Y141745D01*
X104294Y140913D01*
X103788Y140053D01*
X103327Y139169D01*
X102910Y138263D01*
X102540Y137337D01*
X102218Y136393D01*
X101943Y135434D01*
X101718Y134462D01*
X101542Y133481D01*
X101416Y132492D01*
X101340Y131497D01*
X101315Y130500D01*
X101340Y129503D01*
X101416Y128508D01*
X101542Y127519D01*
X101718Y126537D01*
X101943Y125566D01*
X102218Y124607D01*
X102540Y123663D01*
X102910Y122737D01*
X103327Y121831D01*
X103788Y120947D01*
X104294Y120087D01*
X104843Y119255D01*
X105434Y118451D01*
X106064Y117678D01*
X106732Y116938D01*
X107438Y116232D01*
X108178Y115564D01*
X108951Y114934D01*
X109755Y114343D01*
X110587Y113794D01*
X111447Y113288D01*
X112331Y112827D01*
X113237Y112410D01*
X114163Y112040D01*
X115107Y111718D01*
X116066Y111443D01*
X117037Y111218D01*
X118019Y111042D01*
X119009Y110916D01*
X120003Y110840D01*
X121000Y110815D01*
X121997Y110840D01*
X122992Y110916D01*
X123981Y111042D01*
X124963Y111218D01*
X125934Y111443D01*
X126893Y111718D01*
X127837Y112040D01*
X128763Y112410D01*
X129669Y112827D01*
X130553Y113288D01*
X131413Y113794D01*
X132246Y114343D01*
X133049Y114934D01*
X133822Y115564D01*
X134562Y116233D01*
X135268Y116938D01*
X135936Y117678D01*
X136566Y118451D01*
X137157Y119255D01*
X137706Y120087D01*
X138212Y120947D01*
X138673Y121831D01*
X139090Y122737D01*
X139460Y123663D01*
X139782Y124607D01*
X140057Y125566D01*
X140282Y126538D01*
X140458Y127519D01*
X140584Y128509D01*
X140660Y129503D01*
X140685Y130500D01*
X89685Y124000D02*
X89660Y124997D01*
X89584Y125991D01*
X89458Y126981D01*
X89282Y127963D01*
X89057Y128934D01*
X88782Y129893D01*
X88460Y130837D01*
X88090Y131763D01*
X87673Y132669D01*
X87212Y133553D01*
X86706Y134413D01*
X86157Y135245D01*
X85566Y136049D01*
X84936Y136822D01*
X84268Y137562D01*
X83562Y138268D01*
X82822Y138936D01*
X82049Y139567D01*
X81245Y140157D01*
X80413Y140706D01*
X79553Y141212D01*
X78669Y141673D01*
X77763Y142090D01*
X76837Y142460D01*
X75893Y142782D01*
X74934Y143057D01*
X73963Y143282D01*
X72981Y143458D01*
X71991Y143584D01*
X70997Y143660D01*
X70000Y143685D01*
X69003Y143660D01*
X68009Y143584D01*
X67019Y143458D01*
X66037Y143282D01*
X65066Y143057D01*
X64107Y142782D01*
X63163Y142460D01*
X62237Y142090D01*
X61331Y141673D01*
X60447Y141211D01*
X59587Y140706D01*
X58754Y140157D01*
X57951Y139566D01*
X57178Y138936D01*
X56438Y138268D01*
X55732Y137562D01*
X55064Y136822D01*
X54434Y136049D01*
X53843Y135245D01*
X53294Y134413D01*
X52788Y133553D01*
X52327Y132669D01*
X51910Y131763D01*
X51540Y130837D01*
X51218Y129893D01*
X50943Y128934D01*
X50718Y127963D01*
X50542Y126981D01*
X50416Y125991D01*
X50340Y124997D01*
X50315Y124000D01*
X50340Y123003D01*
X50416Y122009D01*
X50542Y121019D01*
X50718Y120037D01*
X50943Y119066D01*
X51218Y118107D01*
X51540Y117163D01*
X51910Y116237D01*
X52327Y115331D01*
X52789Y114447D01*
X53294Y113587D01*
X53843Y112754D01*
X54434Y111951D01*
X55064Y111178D01*
X55733Y110438D01*
X56438Y109732D01*
X57178Y109064D01*
X57951Y108433D01*
X58755Y107843D01*
X59587Y107294D01*
X60447Y106788D01*
X61331Y106327D01*
X62237Y105910D01*
X63163Y105540D01*
X64107Y105218D01*
X65066Y104943D01*
X66037Y104718D01*
X67019Y104542D01*
X68009Y104416D01*
X69003Y104340D01*
X70000Y104315D01*
X70997Y104340D01*
X71992Y104416D01*
X72981Y104542D01*
X73963Y104718D01*
X74934Y104943D01*
X75893Y105218D01*
X76837Y105540D01*
X77763Y105910D01*
X78669Y106327D01*
X79553Y106789D01*
X80413Y107294D01*
X81245Y107843D01*
X82049Y108434D01*
X82822Y109064D01*
X83562Y109732D01*
X84268Y110438D01*
X84936Y111178D01*
X85567Y111951D01*
X86157Y112755D01*
X86706Y113587D01*
X87212Y114447D01*
X87673Y115331D01*
X88090Y116237D01*
X88460Y117163D01*
X88782Y118107D01*
X89057Y119066D01*
X89282Y120037D01*
X89458Y121019D01*
X89584Y122009D01*
X89660Y123003D01*
X89685Y124000D01*
X104685Y31000D02*
X104660Y31997D01*
X104584Y32991D01*
X104458Y33981D01*
X104282Y34963D01*
X104057Y35934D01*
X103782Y36893D01*
X103460Y37837D01*
X103090Y38763D01*
X102673Y39669D01*
X102211Y40553D01*
X101706Y41413D01*
X101157Y42245D01*
X100566Y43049D01*
X99936Y43822D01*
X99268Y44562D01*
X98562Y45268D01*
X97822Y45936D01*
X97049Y46566D01*
X96245Y47157D01*
X95413Y47706D01*
X94553Y48212D01*
X93669Y48673D01*
X92763Y49090D01*
X91837Y49460D01*
X90893Y49782D01*
X89934Y50057D01*
X88963Y50282D01*
X87981Y50458D01*
X86992Y50584D01*
X85997Y50660D01*
X85000Y50685D01*
X84003Y50660D01*
X83008Y50584D01*
X82019Y50458D01*
X81037Y50282D01*
X80066Y50057D01*
X79107Y49782D01*
X78163Y49460D01*
X77237Y49090D01*
X76331Y48673D01*
X75447Y48212D01*
X74587Y47706D01*
X73755Y47157D01*
X72951Y46566D01*
X72178Y45936D01*
X71438Y45268D01*
X70732Y44562D01*
X70064Y43822D01*
X69433Y43049D01*
X68843Y42245D01*
X68294Y41413D01*
X67788Y40553D01*
X67327Y39669D01*
X66910Y38763D01*
X66540Y37837D01*
X66218Y36893D01*
X65943Y35934D01*
X65718Y34962D01*
X65542Y33981D01*
X65416Y32991D01*
X65340Y31997D01*
X65315Y31000D01*
X65340Y30003D01*
X65416Y29008D01*
X65542Y28019D01*
X65718Y27037D01*
X65943Y26066D01*
X66218Y25107D01*
X66540Y24163D01*
X66910Y23237D01*
X67327Y22331D01*
X67788Y21447D01*
X68294Y20587D01*
X68843Y19755D01*
X69434Y18951D01*
X70064Y18178D01*
X70732Y17438D01*
X71438Y16732D01*
X72178Y16064D01*
X72951Y15434D01*
X73755Y14843D01*
X74587Y14294D01*
X75447Y13788D01*
X76331Y13327D01*
X77237Y12910D01*
X78163Y12540D01*
X79107Y12218D01*
X80066Y11943D01*
X81037Y11718D01*
X82019Y11542D01*
X83009Y11416D01*
X84003Y11340D01*
X85000Y11315D01*
X85997Y11340D01*
X86992Y11416D01*
X87981Y11542D01*
X88963Y11718D01*
X89934Y11943D01*
X90893Y12218D01*
X91837Y12540D01*
X92763Y12910D01*
X93669Y13327D01*
X94553Y13789D01*
X95413Y14294D01*
X96245Y14843D01*
X97049Y15434D01*
X97822Y16064D01*
X98562Y16733D01*
X99268Y17438D01*
X99936Y18178D01*
X100566Y18951D01*
X101157Y19755D01*
X101706Y20587D01*
X102212Y21447D01*
X102673Y22331D01*
X103090Y23237D01*
X103460Y24163D01*
X103782Y25107D01*
X104057Y26066D01*
X104282Y27038D01*
X104458Y28019D01*
X104584Y29009D01*
X104660Y30003D01*
X104685Y31000D01*
X39142Y116472D02*
Y155842D01*
X6858Y116472D02*
X39142D01*
X6858D02*
Y155842D01*
X39142D01*
X37528Y90390D02*
X78473D01*
X78472Y72280D02*
Y90390D01*
X37528Y72280D02*
X78473D01*
X37528D02*
Y90390D01*
Y77398D02*
X78473D01*
X7815Y207858D02*
X47185D01*
X7815D02*
Y240142D01*
X47185D01*
Y207858D02*
Y240142D01*
X116276Y171598D02*
X125724D01*
X116276D02*
Y196402D01*
X125724Y171598D02*
Y196402D01*
X116276D02*
X125724D01*
M02*
