M48
;Layer_Color=9474304
;FILE_FORMAT=2:4
INCH,TZ
;TYPE=PLATED
T1F00S00C0.0276
T2F00S00C0.0295
T3F00S00C0.0315
T4F00S00C0.0335
T5F00S00C0.0354
T6F00S00C0.0402
T7F00S00C0.0433
T8F00S00C0.0531
%
T01
X5250Y17200
Y18200
Y19200
X19150Y18800
X19937
Y18013
X19150
X20725
Y18800
T02
X16890Y17406
Y18406
Y19406
Y20406
Y21406
T03
X21689Y906
Y1906
Y2906
Y3906
Y4906
Y5906
Y6906
X20689Y5906
X19689
X18689
X17689
X16689
X15689
Y4906
Y3906
Y2906
Y1906
Y906
Y6906
Y7906
Y8906
Y9906
Y10906
Y11906
Y12906
Y13906
Y14906
Y15906
Y16906
Y17906
Y18906
Y19906
Y20906
Y21906
X21689
Y20906
Y19906
Y18906
Y17906
Y16906
Y15906
Y14906
Y13906
Y12906
Y11906
Y10906
Y9906
Y8906
Y7906
Y22906
Y23906
X20689Y22906
X15689
Y23906
T04
X12100Y16628
Y20172
T05
X7516Y3100
X9484
X13500Y2900
Y3900
Y4900
Y5900
Y6900
Y1900
Y900
X2600Y2250
Y4218
X1500Y7400
Y8400
Y9400
X1200Y17750
Y18750
X7000Y13384
Y11416
X9850Y9100
Y8100
Y7100
X13500Y7900
X12100Y12066
Y14034
X11050Y22100
Y23100
Y24100
X8200Y24000
X7200
X6200
T06
X13800Y22850
Y23850
T07
X4800Y8350
X2300Y12631
Y14600
X1766Y22400
X3734
X5800Y8350
X6800
T08
X9600Y17250
Y18250
Y19250
M30
